Coordinates
version=1
nRows=13
nColumns=40
inDegrees=yes

Units are S.I. units (second, meters, Newtons, ...)
If the header above contains a line with 'inDegrees', this indicates whether rotational values are in degrees (yes) or radians (no).

endheader
time	pelvis_tilt	pelvis_list	pelvis_rotation	pelvis_tx	pelvis_ty	pelvis_tz	hip_flexion_r	hip_adduction_r	hip_rotation_r	knee_angle_r	knee_angle_r_beta	ankle_angle_r	subtalar_angle_r	mtp_angle_r	hip_flexion_l	hip_adduction_l	hip_rotation_l	knee_angle_l	knee_angle_l_beta	ankle_angle_l	subtalar_angle_l	mtp_angle_l	lumbar_extension	lumbar_bending	lumbar_rotation	arm_flex_r	arm_add_r	arm_rot_r	elbow_flex_r	pro_sup_r	wrist_flex_r	wrist_dev_r	arm_flex_l	arm_add_l	arm_rot_l	elbow_flex_l	pro_sup_l	wrist_flex_l	wrist_dev_l
      0.35000000	     12.20480699	      0.97523592	     -1.94466873	      0.22433363	      0.96654989	     -0.27089849	     15.31711132	     -1.11795107	     -1.40999190	     38.62665417	      0.67416229	      8.31422489	      0.00000000	      0.00000000	    -19.30484718	      5.16411096	      1.72455178	      2.12291099	      0.03705179	      7.71835931	      0.00000000	      0.00000000	    -28.23267680	     -4.30578671	      4.22766931	     -5.71460854	      3.06831717	    -30.12366121	     26.26320404	     88.92463222	    -19.19017243	      4.14887031	      8.59612595	      1.94806676	     -6.85244559	     54.78587215	     89.31328340	    -19.10024919	      0.94731188
      0.36000000	     12.58350562	      0.72584654	     -1.43141609	      0.23974513	      0.96476657	     -0.27159613	     15.15542452	     -0.80273471	     -2.45885448	     34.62098064	      0.60425010	      7.84774394	      0.00000000	      0.00000000	    -20.69165137	      4.86422363	      1.75252766	      2.21290001	      0.03862239	      8.87422698	      0.00000000	      0.00000000	    -28.74306428	     -3.74435109	      4.05453584	     -6.43932452	      3.20901365	    -31.79277935	     26.75970703	     88.91792422	    -18.93950338	      4.24358605	      9.57229551	      2.02316355	     -6.26187926	     57.39383358	     89.32800650	    -15.84477261	      2.43722941
      0.37000000	     12.83221326	      0.51562308	     -1.00374752	      0.25521081	      0.96256948	     -0.27202555	     15.04174952	     -0.40835106	     -3.10275967	     30.60772753	      0.53420562	      7.29269852	      0.00000000	      0.00000000	    -21.84098408	      4.60643272	      1.51844403	      2.52160956	      0.04401039	     10.17289533	      0.00000000	      0.00000000	    -29.08624840	     -3.25862455	      3.68790256	     -6.94879089	      3.31319239	    -32.90658064	     26.98122475	     88.88385266	    -19.28435234	      3.90781857	     10.36997518	      1.98977693	     -5.41373229	     59.95422430	     89.32564763	    -15.38422348	      2.35044641
      0.38000000	     13.21526968	      0.35780268	     -0.44656547	      0.27071052	      0.96048068	     -0.27240061	     14.61572449	     -0.03675844	     -3.60413615	     26.54496649	      0.46329707	      6.61107968	      0.00000000	      0.00000000	    -23.09013328	      4.32248475	      1.30416793	      2.90307137	      0.05066815	     11.29531518	      0.00000000	      0.00000000	    -29.54456000	     -2.78757242	      3.28207059	     -7.49637664	      3.49902994	    -34.07492251	     27.39282954	     88.84949953	    -19.55284729	      3.56108081	     11.22737581	      1.87613395	     -4.47342844	     62.39621224	     89.32501682	    -14.61498663	      2.60134060
      0.39000000	     13.59199528	      0.27615348	      0.09329712	      0.28620898	      0.95824094	     -0.27271209	     14.11154683	      0.30319118	     -3.73046265	     22.65273571	      0.39536482	      5.98560662	      0.00000000	      0.00000000	    -24.25723370	      4.08909817	      1.15877828	      3.44567858	      0.06013844	     12.28287268	      0.00000000	      0.00000000	    -30.01156295	     -2.39718151	      3.00535870	     -8.05923639	      3.70063448	    -35.29926111	     27.83713122	     88.81984632	    -19.62230865	      3.29831476	     12.09830626	      1.74268692	     -3.54684354	     64.89210914	     89.33217149	    -12.92130700	      3.53730867
      0.40000000	     13.27547981	      0.57585697	      0.22966188	      0.30200007	      0.95488182	     -0.27231671	     14.44679901	      0.34512310	     -3.13801060	     19.34261673	      0.33759235	      5.80876316	      0.00000000	      0.00000000	    -24.64520387	      4.36349459	      0.73015040	      4.11265916	      0.07177944	     13.07471344	      0.00000000	      0.00000000	    -29.61351930	     -2.59398835	      2.69882018	     -8.49482885	      3.82221517	    -35.80900556	     27.93466605	     88.69544002	    -19.76014947	      3.17049288	     12.74419928	      1.42646862	     -2.50439513	     67.15672092	     89.33989522	    -12.54326068	      3.30364871
      0.41000000	     13.75115610	      0.24520276	      0.72824164	      0.31769441	      0.95290362	     -0.27249080	     13.63409819	      0.96854621	     -2.46570155	     15.95818180	      0.27852282	      4.87433714	      0.00000000	      0.00000000	    -25.77721033	      3.83416376	      0.18504172	      5.03243753	      0.08783260	     14.23282997	      0.00000000	      0.00000000	    -30.25156404	     -1.94744409	      2.19245647	     -8.77599422	      4.05573563	    -37.24526533	     28.48382677	     88.76088292	    -19.73577875	      2.66997614	     13.19265480	      1.30217543	     -2.66779586	     70.18718400	     89.35162837	     -8.80521686	      5.36723478
      0.42000000	     13.68139475	      0.26457245	      0.99528351	      0.33372373	      0.95025421	     -0.27234490	     13.46990597	      1.21456505	     -1.53586472	     13.27049408	      0.23161382	      4.48088545	      0.00000000	      0.00000000	    -26.29672700	      3.72129913	     -0.25039684	      6.06894757	      0.10592312	     14.95545316	      0.00000000	      0.00000000	    -30.15242411	     -1.78685151	      1.78224880	     -9.06127715	      4.19865228	    -37.97659007	     28.73902521	     88.71534642	    -19.94568174	      2.37774545	     13.58906827	      1.04867747	     -2.04519055	     72.52176940	     89.35422092	     -8.51116610	      5.06020019
      0.43000000	     13.64001012	      0.11373426	      1.35600462	      0.35011071	      0.94799865	     -0.27222623	     13.20984793	      1.56394625	     -1.03544295	     11.10662258	      0.19384713	      4.20758501	      0.00000000	      0.00000000	    -26.87904868	      3.35900302	     -0.65892349	      7.03236967	      0.12273801	     15.31901525	      0.00000000	      0.00000000	    -30.09805843	     -1.39039069	      1.28722894	     -9.24373841	      4.32547623	    -38.66257235	     28.89548404	     88.71423678	    -20.11805042	      1.97328183	     13.79932629	      0.73770832	     -1.64920458	     74.91166949	     89.36607854	     -7.96835015	      5.02229795
      0.44000000	     13.45355893	      0.03881262	      1.55748435	      0.36658951	      0.94577224	     -0.27180145	     13.14460892	      1.83906181	     -0.41398311	      9.60182100	      0.16758339	      4.17432336	      0.00000000	      0.00000000	    -27.21184143	      3.09902401	     -0.96190686	      8.24612734	      0.14392207	     15.52046410	      0.00000000	      0.00000000	    -29.85065188	     -1.18911906	      1.02309129	     -9.43202669	      4.44653084	    -39.23859201	     29.01198218	     88.66791102	    -20.26367757	      1.75642460	     13.99667935	      0.45282356	     -1.15226175	     76.99966862	     89.37776355	     -7.66638751	      4.78148854
      0.45000000	     13.27824906	     -0.27269437	      1.79969388	      0.38350475	      0.94404790	     -0.27150175	     13.02544599	      2.31937275	     -0.22280197	      8.65578459	      0.15107194	      4.11139304	      0.00000000	      0.00000000	    -27.52759286	      2.56480070	     -1.20476816	      9.54371393	      0.16656923	     15.42737277	      0.00000000	      0.00000000	    -29.60596390	     -0.69098227	      0.54714159	     -9.43584233	      4.50670434	    -39.80370362	     29.04717540	     88.67936391	    -20.39136700	      1.43225996	     13.82692244	      0.15037598	     -1.11755486	     79.22740667	     89.39115539	     -7.21566629	      4.58281396
      0.46000000	     13.04881807	     -0.60819004	      1.97102008	      0.40058298	      0.94262474	     -0.27096845	     12.96902244	      2.82807125	     -0.20757664	      8.28159534	      0.14454111	      4.19083115	      0.00000000	      0.00000000	    -27.67173967	      1.99622078	     -1.32913603	     11.09248351	      0.19360036	     15.04985706	      0.00000000	      0.00000000	    -29.28821593	     -0.23849851	      0.20240902	     -9.40091029	      4.53733080	    -40.16923301	     28.99030997	     88.67885670	    -20.53056485	      1.20727223	     13.56722504	     -0.10944224	     -1.17996396	     81.21688075	     89.40501620	     -6.81048511	      4.29771016
      0.47000000	     12.86478045	     -0.94233346	      1.99565917	      0.41783744	      0.94168071	     -0.27013734	     12.87600405	      3.35928750	     -0.26625234	      8.45025708	      0.14748481	      4.33188795	      0.00000000	      0.00000000	    -27.74811854	      1.45436415	     -1.43343357	     12.88497181	      0.22488518	     14.22688682	      0.00000000	      0.00000000	    -29.00126874	      0.13030993	      0.24217244	     -9.43085317	      4.56821510	    -40.47937488	     28.93883464	     88.64673772	    -20.63534286	      1.11947930	     13.38153651	     -0.31539237	     -0.99871002	     82.75175403	     89.41754208	     -6.63380912	      3.98028259
